<?xml version="1.0" standalone="no"?>
<!DOCTYPE svg PUBLIC "-//W3C//DTD SVG 20010904//EN"
 "http://www.w3.org/TR/2001/REC-SVG-20010904/DTD/svg10.dtd">
<svg version="1.0" xmlns="http://www.w3.org/2000/svg"
 width="768.000000pt" height="768.000000pt" viewBox="0 0 768.000000 768.000000"
 preserveAspectRatio="xMidYMid meet">
<metadata>
Created by potrace 1.14, written by Peter Selinger 2001-2017
</metadata>
<g transform="translate(0.000000,768.000000) scale(0.100000,-0.100000)"
fill="#000000" stroke="none">
<path d="M3648 7664 c-2 -1 -48 -5 -103 -9 -55 -3 -111 -8 -125 -10 -14 -2
-50 -7 -80 -10 -45 -5 -251 -41 -335 -59 -120 -24 -465 -129 -559 -170 -17 -7
-56 -23 -86 -36 -73 -30 -361 -172 -430 -212 -197 -112 -462 -304 -640 -463
-177 -159 -419 -426 -552 -611 -308 -430 -543 -959 -644 -1449 -11 -52 -15
-74 -24 -125 -15 -86 -18 -111 -25 -175 -4 -33 -8 -67 -10 -75 -25 -102 -26
-638 -1 -835 2 -16 7 -57 11 -90 5 -49 42 -259 59 -340 3 -16 33 -129 51 -195
107 -391 314 -824 556 -1166 71 -100 128 -176 138 -184 3 -3 24 -27 46 -55 68
-85 105 -125 255 -275 203 -202 495 -434 675 -536 11 -6 56 -32 100 -59 359
-214 903 -410 1282 -461 26 -3 50 -8 53 -9 3 -2 33 -6 65 -10 33 -3 71 -8 85
-10 155 -26 701 -26 862 0 13 2 46 6 73 10 55 6 156 22 195 30 14 3 41 8 60
11 61 10 332 82 425 112 266 87 522 204 767 348 107 64 297 190 308 204 3 4
12 11 21 16 21 12 69 50 188 149 176 146 432 413 556 580 16 22 32 42 36 45
18 16 158 224 224 335 239 395 436 933 490 1335 3 25 8 52 10 60 2 8 6 38 10
65 3 28 7 66 10 85 26 204 26 702 1 838 -2 9 -7 42 -10 73 -4 31 -8 65 -10 75
-2 11 -7 39 -10 64 -51 332 -182 739 -346 1067 -263 527 -619 963 -1088 1330
-87 68 -372 263 -385 263 -3 0 -34 17 -68 38 -153 92 -390 201 -589 272 -58
21 -112 40 -120 43 -15 6 -128 38 -205 58 -22 6 -53 14 -70 19 -61 18 -310 63
-410 75 -27 3 -63 8 -80 10 -95 14 -597 30 -607 19z m-88 -2028 c113 -4 223
-8 245 -11 48 -5 196 -17 245 -20 19 -1 62 -5 95 -9 33 -4 74 -9 90 -11 55 -7
130 -16 165 -21 19 -3 51 -7 70 -10 36 -4 185 -30 230 -39 14 -3 61 -12 105
-21 44 -8 91 -18 105 -20 169 -34 665 -173 755 -213 11 -5 49 -19 85 -32 116
-41 338 -137 483 -211 233 -118 308 -168 352 -238 120 -190 51 -428 -153 -523
-55 -26 -76 -30 -146 -30 -92 0 -72 -8 -371 147 -270 142 -623 271 -980 360
-119 29 -379 83 -450 92 -27 3 -53 8 -56 10 -5 3 -258 37 -366 48 -29 3 -74 8
-100 11 -176 19 -395 28 -688 28 -251 0 -420 -5 -555 -18 -19 -2 -71 -6 -114
-10 -44 -4 -89 -9 -100 -11 -11 -2 -50 -6 -86 -10 -36 -3 -67 -7 -70 -9 -3 -2
-29 -6 -59 -10 -30 -4 -63 -9 -75 -11 -12 -3 -39 -7 -61 -10 -61 -9 -369 -80
-468 -108 -103 -29 -185 -29 -264 2 -274 105 -307 480 -57 635 83 51 470 148
769 192 22 4 47 8 55 10 8 2 42 7 75 11 33 3 69 8 80 10 10 2 49 6 85 10 36 3
73 8 82 9 9 2 59 7 110 10 51 4 111 8 133 10 22 3 126 7 230 11 105 3 191 7
192 8 2 2 154 -1 383 -8z m-50 -1320 c80 -4 158 -9 173 -11 15 -2 59 -6 97
-10 38 -4 79 -8 92 -10 13 -1 50 -6 83 -9 33 -4 67 -9 75 -11 8 -2 42 -7 75
-11 33 -3 62 -8 65 -9 3 -2 26 -6 50 -10 25 -3 99 -18 165 -32 66 -14 127 -26
135 -28 49 -10 205 -52 335 -90 381 -112 736 -265 1053 -453 146 -87 196 -160
197 -287 0 -167 -134 -299 -303 -297 -64 0 -89 10 -211 80 -314 179 -739 351
-1059 427 -9 3 -55 14 -102 25 -82 19 -248 54 -310 65 -112 19 -286 43 -360
50 -36 3 -81 8 -100 10 -177 23 -804 23 -929 0 -9 -1 -52 -6 -96 -10 -44 -4
-87 -9 -96 -10 -9 -2 -40 -6 -70 -10 -30 -4 -56 -8 -59 -10 -3 -2 -27 -6 -55
-9 -92 -13 -291 -56 -427 -94 -154 -44 -218 -46 -294 -13 -150 66 -221 247
-154 389 30 64 68 108 120 139 91 55 525 156 850 198 25 3 56 8 70 10 14 2 59
7 100 11 41 3 89 8 105 10 17 1 98 6 180 10 83 3 151 7 152 8 5 4 325 -2 453
-8z m70 -1250 c168 -12 211 -16 385 -41 530 -76 1034 -249 1469 -504 126 -73
159 -105 182 -174 52 -157 -58 -310 -226 -311 -63 -1 -69 1 -200 75 -128 73
-361 189 -378 189 -5 0 -26 9 -48 19 -81 39 -416 145 -554 175 -73 16 -179 37
-210 42 -217 33 -250 37 -430 50 -191 15 -641 8 -810 -11 -19 -2 -60 -6 -90
-9 -30 -4 -71 -8 -90 -11 -19 -2 -57 -7 -85 -11 -42 -5 -186 -28 -300 -48 -16
-3 -96 -19 -177 -36 -81 -16 -159 -30 -174 -30 -78 0 -167 58 -205 133 -41 80
-28 187 31 259 37 45 97 74 186 92 38 8 128 26 199 40 72 15 144 28 160 31 17
2 44 6 60 9 189 33 436 60 660 71 72 4 131 8 132 9 5 5 427 -2 513 -8z"/>
</g>
</svg>
